<svg xmlns="http://www.w3.org/2000/svg" version="1.1" viewBox="-5.0 -10.0 110.0 110.0">
 <path d="m18.754 12.5c-2.5703 0-4.6953 2.1133-4.6953 4.6797v0.007812l-3.1289 0.003906c-2.5703 0-4.6797 2.1094-4.6797 4.6797v9.3711 0.011718 51.547c0 2.5703 2.1094 4.6953 4.6797 4.6953l78.141 0.003906c2.5703 0 4.6797-2.125 4.6797-4.6953v-51.551-0.011718-9.3711c0-2.5703-2.1094-4.6797-4.6797-4.6797h-3.1289v-0.007812c0-2.5703-2.125-4.6797-4.6953-4.6797-2.5703 0-4.6797 2.1133-4.6797 4.6797l-6.2539-0.003906c0-2.5703-2.1133-4.6797-4.6797-4.6797-2.5703 0-4.6953 2.1133-4.6953 4.6797h-6.2539c0-2.5703-2.1133-4.6797-4.6836-4.6797s-4.6797 2.1133-4.6797 4.6797h-6.2578c0-2.5703-2.125-4.6797-4.6953-4.6797-2.5703 0-4.6797 2.1133-4.6797 4.6797h-6.2539c0-2.5703-2.1133-4.6797-4.6797-4.6797zm0 3.125c0.89453 0 1.5547 0.66406 1.5547 1.5547v1.5586 0.015625 3.125c0 0.89453-0.66406 1.5547-1.5547 1.5547-0.89453 0-1.5703-0.66406-1.5703-1.5547v-3.1211-0.011718-1.5664c0-0.89453 0.67969-1.5547 1.5703-1.5547zm15.617 0c0.89453 0 1.5703 0.66406 1.5703 1.5547v4.6953c0 0.89453-0.67578 1.5547-1.5703 1.5547-0.89453 0-1.5547-0.66406-1.5547-1.5547l-0.003906-3.1211v-0.015625-1.5547c0-0.89453 0.66406-1.5547 1.5547-1.5547zm15.629 0c0.89453 0 1.5547 0.66406 1.5547 1.5547v4.6953c0 0.89453-0.66406 1.5547-1.5547 1.5547-0.89453 0-1.5703-0.66406-1.5703-1.5547v-3.1211-0.015625-1.5547c0-0.89453 0.67578-1.5547 1.5703-1.5547zm15.633 0c0.89453 0 1.5547 0.66406 1.5547 1.5547v4.6953c0 0.89453-0.66406 1.5547-1.5547 1.5547-0.89453 0-1.5703-0.66406-1.5703-1.5547l-0.003906-3.1211v-0.015625-1.5547c0-0.89453 0.67969-1.5547 1.5703-1.5547zm15.617 0c0.89453 0 1.5703 0.66406 1.5703 1.5547v1.5664h-0.003906v0.011718 3.1172c0 0.89453-0.67578 1.5547-1.5703 1.5547-0.89453 0-1.5547-0.66406-1.5547-1.5547v-3.125 0.003906-0.015625-1.5547c0-0.89453 0.66406-1.5547 1.5547-1.5547zm-57.812 4.6836h6.2539v1.5703c0 2.5703 2.1133 4.6797 4.6797 4.6797 2.5703 0 4.6953-2.1133 4.6953-4.6797v-1.5703h6.2539v1.5703c0 2.5703 2.1133 4.6797 4.6797 4.6797 2.5703 0 4.6836-2.1133 4.6836-4.6797v-1.5703h6.25v1.5703c0 2.5703 2.125 4.6797 4.6953 4.6797 2.5703 0 4.6797-2.1133 4.6797-4.6797v-1.5703h6.2539v1.5703c0 2.5703 2.1133 4.6797 4.6797 4.6797 2.5703 0 4.6953-2.1133 4.6953-4.6797l0.003906-1.5625h3.1289c0.88281 0 1.5547 0.67578 1.5547 1.5547v7.8164h-81.25v-7.8164c0-0.88281 0.67578-1.5547 1.5547-1.5547h3.1289v1.5625c0 2.5703 2.125 4.6797 4.6953 4.6797 2.5703 0 4.6797-2.1133 4.6797-4.6797zm-14.062 12.504h81.25v49.992c0 0.88281-0.67578 1.5703-1.5547 1.5703l-78.141-0.003906c-0.88281 0-1.5547-0.6875-1.5547-1.5703zm7.8086 4.6797c-0.86328 0.003906-1.5625 0.70703-1.5586 1.5703v7.8086c0.003906 0.85938 0.69922 1.5508 1.5586 1.5547h9.375c0.85938-0.003906 1.5547-0.69531 1.5586-1.5547v-7.8086c0.003906-0.86328-0.69531-1.5664-1.5586-1.5703zm18.758 0h-0.003906c-0.41406 0-0.81641 0.16406-1.1094 0.45703-0.29688 0.29688-0.46094 0.69531-0.45703 1.1133v7.8086c0.003906 0.86328 0.70312 1.5586 1.5664 1.5547h9.3789c0.85938-0.003906 1.5547-0.69531 1.5586-1.5547v-7.8086c0-0.86328-0.69531-1.5664-1.5586-1.5703zm18.746 0h-0.003906c-0.86328 0.003906-1.5586 0.70703-1.5586 1.5703v7.8086c0.003906 0.85938 0.69922 1.5508 1.5586 1.5547h9.375c0.41406 0.003907 0.8125-0.16016 1.1094-0.44922 0.29297-0.29297 0.46094-0.69141 0.46094-1.1055v-7.8086c0.003906-0.41797-0.16406-0.82031-0.45703-1.1133-0.29688-0.29297-0.69531-0.45703-1.1133-0.45703zm18.754 0h-0.003906c-0.41797 0-0.81641 0.16406-1.1133 0.45703-0.29297 0.29688-0.45703 0.69531-0.45703 1.1133v7.8086c0.003906 0.86328 0.70703 1.5586 1.5703 1.5547h9.3789c0.85547-0.003906 1.5508-0.69531 1.5547-1.5547v-7.8086c0.003906-0.86328-0.69141-1.5664-1.5547-1.5703zm-54.688 3.125h6.2383v4.6953h-6.2383zm18.742 0h6.2539v4.6953h-6.2539zm18.758 0h6.25v4.6953h-6.2539zm18.742 0h6.25v4.6953h-6.2539zm-57.812 12.508c-0.85938 0-1.5547 0.69531-1.5586 1.5547v7.8164c0.003906 0.85938 0.69922 1.5547 1.5586 1.5586h9.3789-0.003906c0.85938-0.003907 1.5547-0.69922 1.5586-1.5586v-7.8164c-0.003907-0.85938-0.69922-1.5547-1.5586-1.5547zm18.758 0h-0.003906c-0.86328-0.003906-1.5625 0.69141-1.5664 1.5547v7.8164c0.003906 0.86328 0.70312 1.5625 1.5664 1.5586h9.3789c0.85938-0.003907 1.5547-0.69922 1.5586-1.5586v-7.8164c-0.003906-0.85938-0.69922-1.5547-1.5586-1.5547zm18.746 0h-0.003906c-0.85938 0-1.5547 0.69531-1.5586 1.5547v7.8164c0.003906 0.85938 0.69922 1.5547 1.5586 1.5586h9.375c0.41406 0.003906 0.8125-0.16016 1.1094-0.45313 0.29297-0.29297 0.46094-0.6875 0.46094-1.1055v-7.8164c0-0.41406-0.16797-0.8125-0.46094-1.1055-0.29688-0.28906-0.69531-0.45312-1.1094-0.44922zm18.754 0h-0.003906c-0.86328-0.003906-1.5664 0.69141-1.5703 1.5547v7.8164c0.003906 0.86328 0.70703 1.5625 1.5703 1.5586h9.3789c0.85547-0.003907 1.5508-0.69922 1.5547-1.5586v-7.8164c-0.003906-0.85938-0.69922-1.5547-1.5547-1.5547zm-54.688 3.125h6.2383v4.6797h-6.2383zm18.742 0h6.2539v4.6797h-6.2539zm18.758 0h6.25v4.6797h-6.2539zm18.742 0h6.25v4.6797h-6.2539zm-57.812 12.5c-0.85938 0.003906-1.5547 0.69922-1.5586 1.5586v7.8086c-0.003906 0.86328 0.69531 1.5625 1.5586 1.5664h9.3789-0.003906c0.86328-0.003906 1.5625-0.70312 1.5586-1.5664v-7.8086c-0.003907-0.85938-0.69922-1.5547-1.5586-1.5586zm18.758 0h-0.003906c-0.86328-0.003906-1.5625 0.69531-1.5664 1.5586v7.8086c-0.003906 0.41406 0.16016 0.81641 0.45703 1.1094 0.29297 0.29688 0.69531 0.46094 1.1094 0.45703h9.3789c0.86328-0.003906 1.5586-0.70312 1.5586-1.5664v-7.8086c-0.003906-0.85938-0.69922-1.5547-1.5586-1.5586zm18.746 0h-0.003906c-0.86328 0.003906-1.5547 0.69922-1.5586 1.5586v7.8086c0 0.86328 0.69531 1.5625 1.5586 1.5664h9.375c0.41797 0.003906 0.81641-0.16016 1.1133-0.45703 0.29297-0.29297 0.46094-0.69141 0.45703-1.1094v-7.8086c0-0.41797-0.16797-0.8125-0.46094-1.1055-0.29688-0.28906-0.69531-0.45312-1.1094-0.45312zm18.754 0h-0.003906c-0.86328-0.003906-1.5664 0.69531-1.5703 1.5586v7.8086c0 0.41406 0.16406 0.81641 0.45703 1.1094 0.29688 0.29688 0.69531 0.46094 1.1133 0.45703h9.3789c0.86328-0.003906 1.5586-0.70312 1.5547-1.5664v-7.8086c-0.003906-0.85938-0.69922-1.5547-1.5547-1.5586zm-54.684 3.1133h6.2383v4.6953h-6.2422zm18.742 0h6.2539v4.6953h-6.2578zm18.758 0h6.25v4.6953h-6.2578zm18.742 0h6.2539v4.6953h-6.2539z"/></svg>