<svg xmlns="http://www.w3.org/2000/svg" xmlns:xlink="http://www.w3.org/1999/xlink" xmlns:serif="http://www.serif.com/" viewBox="0 0 100 100" version="1.1" xml:space="preserve" style="" x="0px" y="0px" fill-rule="evenodd" clip-rule="evenodd" stroke-linejoin="round" stroke-miterlimit="1.41421"><g transform="matrix(1,0,0,1,-346,-94)"><g transform="matrix(3.125,0,0,3.125,346,94)"><rect x="0" y="0" width="32" height="32" style="" fill="none"/><g transform="matrix(0.32,0,0,0.32,-110.72,-30.08)"><path d="M411.238,177.262L380.762,177.262C378.87,177.189 378.906,176.626 378.775,175.491C378.645,174.368 379.602,173.306 380.762,173.262L411.238,173.262C411.289,173.264 411.34,173.266 411.391,173.268C413.153,173.471 413.095,173.905 413.225,175.033C413.355,176.156 412.398,177.217 411.238,177.262ZM422.667,166.786L369.333,166.786C367.276,166.681 366.341,162.937 369.333,162.786L422.667,162.786C422.734,162.789 422.802,162.793 422.869,162.796C424.126,162.989 424.245,163.462 424.462,163.905C425.05,165.104 424.133,166.711 422.667,166.786ZM436,156.31L356,156.31C354.612,156.222 354.452,155.717 354.19,155.161C353.626,153.963 354.559,152.4 356,152.31L436,152.31C436.084,152.315 436.167,152.32 436.251,152.325C438.228,152.702 438.849,156.13 436,156.31ZM396.25,103.739C417.087,103.933 436.027,122.148 436.095,143.829C436.095,143.829 436.015,144.805 435.421,145.33C434.271,146.35 432.213,145.777 432.095,143.833C432.095,143.833 432.05,140.849 431.7,138.502C429.096,121.066 412.256,106.887 394.209,107.782C376.075,108.682 359.965,124.797 359.905,143.835C359.905,143.835 359.441,145.833 357.905,145.833C355.619,145.833 355.82,141.876 356.242,138.644C358.716,119.673 375.925,103.801 395.996,103.738C396.081,103.738 396.165,103.739 396.25,103.739Z" style="" fill-rule="nonzero"/></g></g></g></svg>