<svg xmlns="http://www.w3.org/2000/svg" xmlns:xlink="http://www.w3.org/1999/xlink" xmlns:serif="http://www.serif.com/" viewBox="0 0 100 100" version="1.1" xml:space="preserve" style="" x="0px" y="0px" fill-rule="evenodd" clip-rule="evenodd" stroke-linejoin="round" stroke-miterlimit="1.41421"><g transform="matrix(1,0,0,1,0,-94)"><g transform="matrix(3.125,0,0,3.125,0,94)"><rect x="0" y="0" width="32" height="32" style="" fill="none"/><g transform="matrix(1.06667,0,0,1.06667,-41.3333,-38.4)"><path d="M57.097,38.4C59.037,38.422 60.985,38.891 62.694,39.759C63.155,39.993 63.315,40.578 62.605,40.957C62.228,41.162 62.196,41.186 62.02,41.295C57.384,44.16 55.317,50.567 57.587,55.643C58.635,57.987 60.5,59.944 62.778,61.134C62.778,61.134 63.024,61.283 63.083,61.524C63.169,61.877 62.834,62.174 62.531,62.323C58.741,64.179 54.004,63.953 50.403,61.735C45.475,58.698 43.128,52.021 45.219,46.525C46.999,41.848 51.703,38.482 56.837,38.401C56.924,38.4 57.011,38.4 57.097,38.4ZM56.926,39.6C51.451,39.652 46.389,44.073 45.692,49.548C44.919,55.616 49.716,61.919 56.195,62.372C57.882,62.49 59.59,62.227 61.168,61.613C61.168,61.613 61.216,61.624 60.855,61.377C56.252,58.172 54.188,51.778 56.243,46.463C57.199,43.991 58.96,41.844 61.194,40.397C60.508,40.125 59.795,39.921 59.068,39.787C58.362,39.658 57.645,39.598 56.926,39.6Z" style="" fill-rule="nonzero"/></g></g></g></svg>