<svg xmlns="http://www.w3.org/2000/svg" xmlns:xlink="http://www.w3.org/1999/xlink" xmlns:serif="http://www.serif.com/" viewBox="0 0 100 100" version="1.1" xml:space="preserve" style="" x="0px" y="0px" fill-rule="evenodd" clip-rule="evenodd" stroke-linejoin="round" stroke-miterlimit="1.41421"><g transform="matrix(1,0,0,1,-116,-94)"><g transform="matrix(3.125,0,0,3.125,116,94)"><rect x="0" y="0" width="32" height="32" style="" fill="none"/><g transform="matrix(0.32,0,0,0.32,-37.12,-30.08)"><path d="M178.257,174.571L167.414,185.414C167.414,185.414 165.791,186.482 164.586,185.414L153.743,174.571L137.429,174.571C137.429,174.571 135.531,174.268 135.429,172.571L135.429,156.257L124.586,145.414C124.586,145.414 123.518,143.791 124.586,142.586L135.429,131.743L135.429,115.429C135.429,115.429 135.732,113.531 137.429,113.429L153.743,113.429L164.586,102.586C164.586,102.586 165.131,101.883 166.361,102.033C166.69,102.114 166.852,102.088 167.414,102.586L178.257,113.429L194.571,113.429C194.584,113.431 196.475,113.827 196.571,115.429L196.571,131.743L207.414,142.586C207.414,142.586 208.541,144.142 207.414,145.414L196.571,156.257L196.571,172.571C196.571,172.571 196.179,174.474 194.571,174.571L178.257,174.571ZM139.429,117.429L139.416,132.795C139.347,133.203 139.337,133.432 138.843,133.986L128.828,144L138.992,154.182C139.476,154.863 139.404,154.997 139.429,155.429L139.429,170.571L154.795,170.584C155.619,170.724 155.663,170.869 155.986,171.157L166,181.172L176.182,171.008C176.519,170.768 176.687,170.613 177.429,170.571L192.571,170.571L192.584,155.205C192.724,154.381 192.869,154.337 193.157,154.014L203.172,144L193.008,133.818C192.768,133.481 192.613,133.313 192.571,132.571L192.571,117.429L177.205,117.416C176.797,117.347 176.568,117.337 176.014,116.843L166,106.828C162.662,110.167 159.324,113.505 155.986,116.843C155.611,117.178 155.396,117.382 154.571,117.429L139.429,117.429ZM166.232,126.001C176.422,126.195 185.279,136.138 183.825,146.514C182.637,154.994 174.618,162 166,162C154.094,162 144.017,147.78 149.873,136.001C152.796,130.122 159.052,126.129 165.768,126.001C166,126 166,126 166.232,126.001ZM165.819,130.001C156.593,130.176 149.048,141.079 153.38,150.066C157.174,157.935 169.108,160.376 175.657,154.132C183.352,146.795 179.001,130.245 166.181,130.001C166,130 166,130 165.819,130.001Z" style="" fill-rule="nonzero"/></g></g></g></svg>